<svg width="130" height="40" viewBox="0 0 130 40" fill="none" xmlns="http://www.w3.org/2000/svg">
<path d="M10.3849 6.13651C12.5971 3.89443 14.0968 1.61497 14.5702 0.755508C16.6628 3.05987 19.3458 9.49216 13.337 16.7864C7.32824 24.0807 7.27094 29.9151 7.99339 31.9205C13.1053 21.577 19.7145 18.9662 22.3801 18.9538C17.5073 22.272 12.8263 33.8636 11.0949 39.2446C-7.43962 21.6816 7.61971 8.93911 10.3849 6.13651Z" fill="#203C87"/>
<path d="M33.3621 38.5039C32.9177 38.5039 32.609 38.3063 32.4362 37.9113C32.2634 37.5162 32.1769 36.9854 32.1769 36.3187C32.1769 35.8249 32.214 35.2693 32.2881 34.652L34.6584 13.0224C35.5967 12.9236 36.5843 12.8372 37.6214 12.7631C38.6831 12.6891 39.8189 12.652 41.0288 12.652C43.2757 12.652 45.0782 12.8619 46.4362 13.2816C47.7942 13.6767 48.7819 14.294 49.3992 15.1335C50.0164 15.973 50.3251 17.0224 50.3251 18.2816C50.3251 19.7384 49.893 20.9977 49.0288 22.0594C48.1893 23.1212 47.0782 23.9977 45.6955 24.6891L44.4732 25.3187C43.8066 25.6397 43.214 25.9113 42.6955 26.1335C42.1769 26.331 41.6955 26.4298 41.251 26.4298C40.7819 26.4298 40.3004 26.2816 39.8066 25.9854C39.3127 25.6644 39.0658 25.3681 39.0658 25.0965C39.0658 24.8742 39.1152 24.7261 39.214 24.652C39.3374 24.5533 39.4979 24.4792 39.6955 24.4298C40.5843 24.2076 41.4856 23.8742 42.3992 23.4298C43.3374 22.9607 44.1152 22.3557 44.7325 21.615C45.3745 20.8742 45.6955 19.9483 45.6955 18.8372C45.6955 17.6026 45.1522 16.7261 44.0658 16.2076C42.9794 15.6891 41.214 15.4298 38.7695 15.4298L37.0288 32.3187C37.0041 32.5656 36.9794 32.8125 36.9547 33.0594C36.9547 33.2816 36.9547 33.5162 36.9547 33.7631C36.9547 34.0347 36.9671 34.3187 36.9918 34.615C37.0164 34.8866 37.0411 35.1582 37.0658 35.4298C40.0041 35.4298 42.2263 34.9854 43.7325 34.0965C45.2387 33.1829 45.9918 31.8125 45.9918 29.9854C45.9918 28.8495 45.6831 27.8619 45.0658 27.0224C44.4732 26.1829 43.6708 25.6026 42.6584 25.2816L45.214 23.9483C46.4239 24.2446 47.4485 24.7014 48.2881 25.3187C49.1522 25.9113 49.8066 26.615 50.251 27.4298C50.6955 28.2446 50.9177 29.1582 50.9177 30.1705C50.9177 31.7261 50.5226 33.1088 49.7325 34.3187C48.9671 35.5286 47.8066 36.4792 46.251 37.1705C44.6955 37.8619 42.7695 38.2076 40.4732 38.2076C39.9794 38.2076 39.3745 38.2199 38.6584 38.2446C37.9424 38.2693 37.214 38.3063 36.4732 38.3557C35.7572 38.4051 35.1029 38.4421 34.5103 38.4668C33.9424 38.4915 33.5597 38.5039 33.3621 38.5039ZM54.775 38.7261C54.3306 38.7261 53.9849 38.4545 53.738 37.9113C53.4911 37.3681 53.38 36.7384 53.4047 36.0224C53.4294 35.1829 53.5034 34.1829 53.6269 33.0224C53.7503 31.8619 53.8738 30.7137 53.9973 29.5779L55.0343 20.8372C55.1824 19.7261 55.2195 18.7384 55.1454 17.8742C55.0713 17.01 54.9726 16.2446 54.8491 15.5779C54.7256 14.9113 54.6639 14.3434 54.6639 13.8742C54.6639 13.6026 54.8738 13.3681 55.2935 13.1705C55.738 12.9483 56.2442 12.7755 56.8121 12.652C57.38 12.5039 57.8615 12.4298 58.2565 12.4298C58.6763 12.4298 59.0466 12.7384 59.3676 13.3557C59.6886 13.9483 59.8491 14.6397 59.8491 15.4298C59.8491 15.6026 59.8244 16.0841 59.775 16.8742C59.7256 17.6644 59.6269 18.5656 59.4787 19.5779L58.2935 28.0965C58.0466 29.8742 57.8738 31.652 57.775 33.4298C57.6763 35.1829 57.5405 36.9483 57.3676 38.7261H54.775ZM68.3349 38.7631C66.2115 38.7631 64.5571 38.1458 63.372 36.9113C62.2115 35.652 61.6312 33.8125 61.6312 31.3928C61.6312 29.7878 61.8905 28.3063 62.409 26.9483C62.9522 25.5656 63.6806 24.3557 64.5942 23.3187C65.5078 22.2816 66.5571 21.4792 67.7423 20.9113C68.9522 20.3187 70.2238 20.0224 71.5571 20.0224C73.6806 20.0224 75.2979 20.652 76.409 21.9113C77.5448 23.1705 78.1127 25.0718 78.1127 27.615C78.1127 29.1458 77.8534 30.5903 77.3349 31.9483C76.8411 33.2816 76.1497 34.4668 75.2609 35.5039C74.372 36.5162 73.3349 37.3187 72.1497 37.9113C70.9646 38.4792 69.6929 38.7631 68.3349 38.7631ZM69.2238 35.9854C70.1621 35.9854 70.9646 35.6397 71.6312 34.9483C72.3226 34.257 72.8411 33.3063 73.1868 32.0965C73.5571 30.8866 73.7423 29.5286 73.7423 28.0224C73.7423 26.4174 73.4954 25.1458 73.0016 24.2076C72.5325 23.2693 71.7423 22.8002 70.6312 22.8002C69.7176 22.8002 68.9028 23.1458 68.1868 23.8372C67.4954 24.5286 66.9522 25.4792 66.5571 26.6891C66.1868 27.8742 66.0016 29.2323 66.0016 30.7631C66.0016 32.4668 66.2732 33.7631 66.8164 34.652C67.3596 35.5409 68.1621 35.9854 69.2238 35.9854ZM86.4194 38.7631C84.296 38.7631 82.6416 38.1458 81.4565 36.9113C80.296 35.652 79.7157 33.8125 79.7157 31.3928C79.7157 29.7878 79.975 28.3063 80.4935 26.9483C81.0367 25.5656 81.7651 24.3557 82.6787 23.3187C83.5923 22.2816 84.6416 21.4792 85.8268 20.9113C87.0367 20.3187 88.3083 20.0224 89.6416 20.0224C91.7651 20.0224 93.3824 20.652 94.4935 21.9113C95.6293 23.1705 96.1972 25.0718 96.1972 27.615C96.1972 29.1458 95.9379 30.5903 95.4194 31.9483C94.9256 33.2816 94.2342 34.4668 93.3453 35.5039C92.4565 36.5162 91.4194 37.3187 90.2342 37.9113C89.049 38.4792 87.7774 38.7631 86.4194 38.7631ZM87.3083 35.9854C88.2466 35.9854 89.049 35.6397 89.7157 34.9483C90.4071 34.257 90.9256 33.3063 91.2713 32.0965C91.6416 30.8866 91.8268 29.5286 91.8268 28.0224C91.8268 26.4174 91.5799 25.1458 91.0861 24.2076C90.6169 23.2693 89.8268 22.8002 88.7157 22.8002C87.8021 22.8002 86.9873 23.1458 86.2713 23.8372C85.5799 24.5286 85.0367 25.4792 84.6416 26.6891C84.2713 27.8742 84.0861 29.2323 84.0861 30.7631C84.0861 32.4668 84.3577 33.7631 84.9009 34.652C85.4441 35.5409 86.2466 35.9854 87.3083 35.9854ZM121.356 38.5779C121.084 38.5779 120.887 38.4545 120.763 38.2076C120.64 37.936 120.566 37.6397 120.541 37.3187C120.516 36.9977 120.504 36.7384 120.504 36.5409C120.504 36.1952 120.529 35.7508 120.578 35.2076C120.627 34.6644 120.689 34.0965 120.763 33.5039C120.837 32.8866 120.911 32.3557 120.985 31.9113L121.615 28.0594C121.689 27.5656 121.763 27.1088 121.837 26.6891C121.911 26.2446 121.948 25.7755 121.948 25.2816C121.948 24.9113 121.874 24.6273 121.726 24.4298C121.578 24.2323 121.38 24.1335 121.134 24.1335C120.813 24.1335 120.282 24.4421 119.541 25.0594C118.8 25.6767 118.01 26.5533 117.171 27.6891C116.331 28.8249 115.566 30.1952 114.874 31.8002C114.183 33.4051 113.738 35.1952 113.541 37.1705L112.726 31.7261C113.738 28.8619 114.862 26.5779 116.096 24.8742C117.356 23.1705 118.603 21.9483 119.837 21.2076C121.072 20.4421 122.146 20.0594 123.059 20.0594C123.825 20.0594 124.43 20.1952 124.874 20.4668C125.343 20.7384 125.689 21.1335 125.911 21.652C126.134 22.1705 126.245 22.7878 126.245 23.5039C126.245 24.0224 126.195 24.5779 126.096 25.1705C126.022 25.7384 125.936 26.3434 125.837 26.9854L124.059 38.5779H121.356ZM99.3558 38.7261C99.0348 38.7261 98.7879 38.6644 98.615 38.5409C98.4669 38.4421 98.3804 38.1582 98.3558 37.6891C98.3558 37.2199 98.4175 36.4668 98.5409 35.4298L100.282 20.0224H102.874C103.368 20.0224 103.726 20.294 103.948 20.8372C104.195 21.3804 104.319 21.9977 104.319 22.6891C104.319 23.01 104.22 23.5162 104.022 24.2076C103.85 24.8742 103.64 25.5903 103.393 26.3557C103.146 27.0965 102.924 27.7508 102.726 28.3187L101.763 31.3557L103.134 31.1335L102.504 37.1705C102.479 37.4174 102.331 37.6397 102.059 37.8372C101.813 38.0347 101.516 38.1952 101.171 38.3187C100.825 38.4668 100.479 38.5656 100.134 38.615C99.8125 38.6891 99.5533 38.7261 99.3558 38.7261ZM110.282 38.7261C109.837 38.7261 109.566 38.6397 109.467 38.4668C109.368 38.294 109.319 37.9977 109.319 37.5779C109.319 37.2076 109.356 36.6026 109.43 35.7631C109.529 34.9236 109.726 33.6397 110.022 31.9113L110.689 28.0965C110.788 27.6026 110.862 27.1212 110.911 26.652C110.985 26.1582 111.022 25.6644 111.022 25.1705C111.022 24.8249 110.961 24.5656 110.837 24.3928C110.714 24.2199 110.516 24.1335 110.245 24.1335C109.899 24.1335 109.343 24.4421 108.578 25.0594C107.813 25.6767 106.998 26.5533 106.134 27.6891C105.294 28.8249 104.529 30.1952 103.837 31.8002C103.146 33.4051 102.701 35.1952 102.504 37.1705L101.615 31.7261C102.356 29.5779 103.195 27.7631 104.134 26.2816C105.072 24.8002 106.022 23.6026 106.985 22.6891C107.948 21.7755 108.862 21.1088 109.726 20.6891C110.615 20.2693 111.38 20.0594 112.022 20.0594C112.837 20.0594 113.467 20.2076 113.911 20.5039C114.38 20.8002 114.701 21.1952 114.874 21.6891C115.072 22.1582 115.171 22.652 115.171 23.1705C115.171 23.7878 115.072 24.4298 114.874 25.0965C114.677 25.7631 114.405 26.5779 114.059 27.5409C113.738 28.4792 113.38 29.6891 112.985 31.1705L114.208 30.7261L113.541 37.1705C113.516 37.4174 113.38 37.6397 113.134 37.8372C112.887 38.0347 112.578 38.1952 112.208 38.3187C111.862 38.4421 111.504 38.5409 111.134 38.615C110.788 38.6891 110.504 38.7261 110.282 38.7261Z" fill="#203C87"/>
</svg>
